<svg version="1.1" id="Layer_1" xmlns="http://www.w3.org/2000/svg" xmlns:xlink="http://www.w3.org/1999/xlink" x="0px" y="0px" viewBox="0 0 512 512" style="enable-background:new 0 0 512 512;" xml:space="preserve">
<style type="text/css">
	.st0{fill:#18B8C4;}
</style>
<g>
	<path class="st0" d="M451.2,425.4L451.2,425.4c46.6,0,70-56.4,37-89.4l-58.9-58.9c-4.8-4.8-4.8-12.7,0-17.5l58.9-58.9
		c33-33,9.6-89.4-37-89.4l0,0c-13.9,0-27.2,5.5-37,15.3L281.2,259.7c-4.8,4.8-4.8,12.7,0,17.5l132.9,132.9
		C424,419.9,437.3,425.4,451.2,425.4z" id="id_101"></path>
	<path class="st0" d="M191,425.4L191,425.4c46.6,0,70-56.4,37-89.4l-58.9-58.9c-4.8-4.8-4.8-12.7,0-17.5l58.9-58.9
		c33-33,9.6-89.4-37-89.4l0,0c-13.9,0-27.2,5.5-37,15.3L21,259.7c-4.8,4.8-4.8,12.7,0,17.5L154,410.1
		C163.8,419.9,177.1,425.4,191,425.4z" id="id_102"></path>
</g>
</svg>